<?xml version="1.0" encoding="UTF-8"?><svg id="Layer_1" xmlns="http://www.w3.org/2000/svg" viewBox="0 0 316.34 231.55"><defs><style>.cls-1{fill:#494a4e;}.cls-2{fill:#ff7373;}.cls-3{fill:#60c5c1;}.cls-4{fill:#ff9700;}</style></defs><path class="cls-3" d="M71.8,77.75H9.8c-1.13-.75-2.19-1.4-2.66-2.78V13.15c.6-1.5,1.94-2.74,3.62-2.79l61.24.23c1.08.47,1.9,1.29,2.37,2.37l.22,61.31c-.21,1.75-1.45,2.61-2.8,3.47ZM32.98,36.27h5.72l.42-.42v-4.18c0-11.04-16.38-13.01-19.13-2.92-.23.84-.37,1.47-.43,2.36-.61,8.36.48,17.46.01,25.9.58,4.02,2.38,6.94,6.47,8.03,6.61,1.77,13.08-1.91,13.08-9.14v-14.61h-9.5v5.85h3.35v10.16c0,.9-1.62,2.25-2.65,2.37-3.64.44-4.37-1.37-4.63-4.59-.49-6.18-.43-16.36,0-22.57.19-2.79,1.02-4.91,4.31-4.56,1.27.13,2.96,1.29,2.96,2.63v5.71ZM62.02,22.9h-20.11v5.57h6.98v36.47h5.72s.7-.65.7-.7V28.47h6.7v-5.57Z"/><path class="cls-3" d="M307.5,60.76v2.78c-2.32,3.16-7.19.91-5.38-3,.82-1.77,4.47-1.58,5.38.21Z"/><path class="cls-3" d="M117.53,22.69c6.32-.98,12.01.98,12.92,7.87-.52,8.77.7,18.34.01,27.01-.92,11.56-19.33,11.26-20.11-.01.71-8.58-1-18.81.07-27.21.47-3.7,3.31-7.07,7.12-7.66ZM119.48,28.82c-1.73.35-2.28,2.14-2.43,3.7-.74,7.36.54,15.89,0,23.38.02,4.83,6.13,5.34,6.7.56-.57-7.76.76-16.59,0-24.22-.26-2.59-1.5-3.98-4.26-3.42Z"/><path class="cls-3" d="M218.13,37.38h-6.42v-6.26c0-.56-1.18-1.93-1.75-2.15-2.91-1.18-4.49.89-4.69,3.54-.6,8.01.37,16.86.13,24.95.51,2.23,3.59,2.95,5.29,1.61.26-.21,1.02-1.31,1.02-1.49v-7.93h6.7c-.33,4.3.53,11.25-3.09,14.31-3.49,2.95-11.07,2.85-14.33-.43-3.34-3.36-2.25-8.08-2.39-12.37-.22-6.58-.68-14.58.02-21.11.75-6.92,8.3-8.81,14.08-6.87,2.57.86,5.43,4.05,5.43,6.83v7.38Z"/><polygon class="cls-3" points="261.14 23.18 265.33 53.8 269.8 23.18 276.22 23.18 269.64 65.51 260.58 65.5 254.16 23.18 261.14 23.18"/><path class="cls-3" d="M106.43,37.38h-6.14c-.09-2.68.71-8.52-3.21-8.65-2.38-.08-3.31,1.31-3.5,3.49.54,7.73-.68,16.34,0,23.96.12,1.33.69,3.07,2.16,3.41,5.78,1.32,4.52-6.52,4.27-9.96h6.42c.15,3.29.66,6.43-.2,9.69-2.57,9.8-18.54,8.86-19.36-1.46-.39-4.96,0-10.39.02-15.31.07-10.08-2.46-21.5,12.14-19.92,3.2.35,7.4,3.72,7.4,7.1v7.66Z"/><polygon class="cls-3" points="194.95 23.18 194.95 29.31 183.78 29.31 183.78 40.16 192.72 40.16 192.72 46.57 183.78 46.57 183.78 59.09 194.95 59.09 194.95 65.22 177.08 65.22 177.08 23.18 194.95 23.18"/><polygon class="cls-3" points="297.45 23.18 297.45 29.31 286.27 29.31 286.27 40.16 295.21 40.16 295.21 46.57 286.27 46.57 286.27 59.09 297.45 59.09 297.45 65.22 279.57 65.22 279.57 23.18 297.45 23.18"/><polygon class="cls-3" points="241.03 23.18 241.03 29.03 234.33 29.03 234.33 65.22 227.63 65.22 227.63 29.31 220.65 29.31 220.65 23.18 241.03 23.18"/><polygon class="cls-3" points="141.61 23.18 141.61 59.09 152.79 59.09 152.79 65.22 135.19 65.22 135.19 23.18 141.61 23.18"/><polygon class="cls-3" points="162.56 23.18 162.56 59.09 173.45 59.09 173.45 65.22 156.14 65.22 156.14 23.18 162.56 23.18"/><rect class="cls-3" x="244.66" y="23.18" width="6.42" height="42.03"/><path class="cls-1" d="M72.04,113.88h32.54l8.63-17.26h-50.31c-6.02,0-11.52,3.4-14.21,8.78l-10.64,21.28h27.59l6.4-12.81Z"/><path class="cls-1" d="M77.94,162.08h-32.54l-8.63,16.74h51.21c5.48,0,10.5-3.06,13-7.93l10.95-21.23h-27.59l-6.4,12.42Z"/><path class="cls-2" d="M75.63,154.64c0-5.83-11.65-17.48-17.48-17.48,5.83,0,17.48-11.65,17.48-17.48,0,5.83,11.65,17.48,17.48,17.48-5.83,0-17.48,11.65-17.48,17.48Z"/><path class="cls-1" d="M35.16,206.17l-1.36,7.95c-.27,1.67-1.08,3.18-2.79,3.18s-1.98-1.48-1.68-3.15l1.36-7.97h-4.67l-1.1,6.56c-.43-1.41-1.61-2.73-4.19-3.66l-1.93-.74c-1.52-.57-1.6-1.33-1.52-1.87.22-1.13,1.25-1.62,2.39-1.62,1.03,0,1.95.48,2.31,2.16l4.15-1.62c-.6-3.06-2.6-4.68-5.78-4.68-3.91,0-7.22,2.33-7.84,5.99-.43,2.7,1.46,4.85,4.18,5.87l2.01.79c1.49.6,1.71,1.25,1.63,1.9-.24,1.25-1.52,1.79-2.93,1.79-1.82,0-2.79-.96-2.96-2.75l-4.2.91c-.19,3.8,2.6,5.99,6.54,5.99,3.04,0,6.24-1.3,7.66-4.14.09,2.25,1.04,4.14,4.03,4.14,1.76,0,3.26-.68,4.53-2.24l-.3,1.93h4.67l2.47-14.7h-4.67Z"/><path class="cls-1" d="M77.83,217.13c-2.14,0-3.39-1.5-3.04-3.6.35-2.1,2.09-3.58,4.23-3.58.73,0,2.12.2,3.17,1.36.49-.6,2.25-2.61,2.74-3.21-1.79-1.76-3.77-2.24-5.48-2.24-3.8,0-6.98,2.1-8.51,5.12l.81-4.8h-4.67l-.33,1.96c-.65-1.36-2.06-2.27-3.91-2.27-2.4,0-4.48,1.15-5.95,2.94l.41-2.4h-2.98l.24-1.5c.08-.57.43-1.22,1.14-1.22s.9.51.81,1.13c-.03.11-.11.34-.22.45h3.44c.14-.26.27-.74.3-.94.46-2.61-1.11-4.29-3.96-4.29-2.5,0-5.45,1.16-6.21,5.45l-.16.91h-.16l.07-.45c-.43-.09-.49-.09-.92-.09-1.03,0-3.55.68-4.5,3.46l.54-3.15h-4.5l-2.47,14.7h4.67l1.22-7.35c.3-1.79,1.63-3.01,3.45-3.01.38,0,1.14.03,1.74.2l.14-.85h.13l-1.84,11.01h4.67l1.84-11.01h2.35c-.66,1.08-1.12,2.31-1.35,3.63-.73,4.34,1.44,7.69,5.48,7.69,1.98,0,3.53-.88,4.67-2.33l-.33,2.01h4.67l.8-4.78c.51,3,2.98,5.09,6.77,5.09,1.71,0,3.85-.45,6.24-2.21-.3-.6-1.38-2.61-1.65-3.21-1.47,1.16-2.9,1.36-3.61,1.36ZM65.92,213.64c-.41,2.33-2.03,3.72-3.88,3.72-1.98,0-2.9-1.7-2.55-3.86.35-2.07,1.82-3.77,3.8-3.77s3.04,1.56,2.63,3.92Z"/><path class="cls-1" d="M121.39,206.17l-.33,1.96c-.65-1.36-2.06-2.27-3.91-2.27-4.12,0-7.32,3.38-8.06,7.63-.2,1.17-.18,2.26.02,3.24h-7.51l2.66-15.72h-4.8l-1.82,10.86c-.05-3.94-2.59-6.01-6.29-6.01-4.83,0-8.44,3.52-9.14,7.72-.71,4.2,1.74,7.61,6.94,7.61,2.28,0,4.8-.65,7.03-2.72-.33-.37-1.52-2.38-1.84-2.78-1.41,1.08-2.77,1.59-4.12,1.59-2.66,0-3.85-1.5-3.66-2.84h10.66l-1.08,6.44h13.35l.37-2.24c.93,1.57,2.56,2.55,4.73,2.55,1.98,0,3.53-.88,4.67-2.33l-.33,2.01h4.67l2.47-14.7h-4.67ZM93.43,211.82h-6.4c.57-1.7,2.39-2.33,3.72-2.33s2.82.65,2.69,2.33ZM120.23,213.64c-.41,2.33-2.03,3.72-3.88,3.72-1.98,0-2.9-1.7-2.55-3.86.35-2.07,1.82-3.77,3.8-3.77s3.04,1.56,2.63,3.92Z"/><path class="cls-1" d="M135.5,205.86c-1.87,0-3.58.91-4.67,2.27l1.3-7.78h-4.67l-3.45,20.52h4.67l.33-2.01c.65,1.45,1.87,2.33,3.83,2.33,4.07,0,7.35-3.35,8.08-7.69.73-4.26-1.3-7.63-5.43-7.63ZM136.23,213.49c-.35,2.16-1.87,3.86-3.85,3.86-1.84,0-3.01-1.39-2.6-3.72.41-2.36,2.01-3.92,3.99-3.92s2.82,1.7,2.47,3.77Z"/><path class="cls-1" d="M260.81,132.36c0-3.69-1.09-6.5-3.26-8.45s-5.2-2.91-9.09-2.91c-5.66,0-10.31,1.42-13.93,4.25-3.62,2.83-6.14,6.59-7.56,11.26-1.42,4.68-2.12,8.46-2.12,11.36,0,4.35,1.19,7.61,3.56,9.78,2.37,2.17,5.83,3.26,10.37,3.26s8.33-.99,11.36-2.96c3.03-1.98,5.5-5.04,7.41-9.19h31.42c-4.02,10.74-10.06,18.41-18.13,23.02-8.07,4.61-19.55,6.92-34.43,6.92-8.83,0-15.69-.64-20.6-1.93-4.91-1.28-8.81-2.96-11.71-5.04-2.9-2.07-5.15-4.79-6.77-8.15-1.61-3.36-2.42-7.44-2.42-12.25,0-2.9.43-6.49,1.28-10.77.86-4.28,2.22-8.35,4.1-12.2,1.88-3.85,4.03-7.16,6.47-9.93,2.44-2.77,5.12-5.09,8.05-6.97s6.21-3.43,9.83-4.64c3.62-1.22,7.76-2.12,12.4-2.72,4.64-.59,9.63-.89,14.97-.89,9.22,0,16.66.87,22.33,2.62s10.08,4.58,13.24,8.5c3.16,3.92,4.74,9.2,4.74,15.86,0,.4-.03,1.45-.1,3.16h-30.43c-.55,0-.99-.44-.99-.99h0Z"/><polygon class="cls-4" points="203.18 118.7 182.16 118.7 192.67 97.68 213.69 97.68 203.18 118.7"/><polygon class="cls-4" points="182.16 160.74 161.14 160.74 171.65 139.72 192.67 139.72 182.16 160.74"/><polygon class="cls-4" points="171.65 139.72 150.63 139.72 161.14 118.7 182.16 118.7 171.65 139.72"/><path class="cls-1" d="M185.6,212.6c.49-1.21,1.2-2.16,2.14-2.85.93-.69,2.04-1.19,3.32-1.49,1.28-.3,2.71-.45,4.3-.45,2.66,0,4.62.39,5.87,1.16,1.26.77,1.88,1.96,1.88,3.58,0,1.38-.33,2.76-1,4.13-.67,1.37-1.78,2.41-3.33,3.11s-3.6,1.05-6.14,1.05c-2.69,0-4.66-.39-5.91-1.16-1.25-.77-1.87-1.98-1.87-3.62,0-1.09.25-2.24.74-3.45ZM192.46,211.85c-.56.32-.98.79-1.28,1.42-.29.63-.44,1.26-.44,1.89,0,.72.21,1.25.63,1.59s1.09.51,2.02.51c1.4,0,2.39-.39,2.97-1.17.59-.78.88-1.69.88-2.73,0-.66-.21-1.16-.64-1.49s-1.1-.5-2.03-.5c-.85,0-1.56.16-2.12.47Z"/><path class="cls-1" d="M203.94,208.29h5.33l-.48,2.31h.04c.94-.94,1.88-1.62,2.82-2.03.94-.41,1.89-.62,2.86-.62.59,0,1.18.04,1.78.13l-1.01,4.94-.93-.22c-.57-.15-1.15-.22-1.74-.22-1.28,0-2.33.27-3.16.82s-1.36,1.36-1.58,2.45l-.93,4.5h-5.51l2.49-12.05Z"/><path class="cls-1" d="M224.19,211.71c0-.31-.17-.53-.51-.66-.34-.13-.79-.2-1.34-.2-.78,0-1.33.08-1.66.25-.33.17-.5.39-.5.67,0,.21.12.36.35.45.23.1.59.17,1.08.21l5.02.44c1.07.09,1.92.35,2.55.79s.94,1.08.94,1.92c0,1.01-.3,1.94-.9,2.77-.6.83-1.6,1.45-2.99,1.86-1.39.41-3.26.62-5.61.62-2.69,0-4.62-.27-5.81-.8s-1.77-1.44-1.77-2.7c0-.13.02-.37.07-.73h6.48v.13c0,.44.18.73.53.86.35.13.84.2,1.48.2.69,0,1.2-.09,1.53-.28.33-.18.5-.47.5-.85,0-.16-.05-.29-.14-.37-.1-.09-.27-.15-.52-.18l-5.11-.53c-1.26-.13-2.17-.41-2.73-.84-.56-.43-.84-1-.84-1.72,0-1.79.74-3.11,2.21-3.96,1.48-.84,3.73-1.27,6.78-1.27,2.45,0,4.26.29,5.43.87,1.17.58,1.75,1.43,1.75,2.54,0,.16-.02.39-.07.68h-6.21s.02-.11.02-.2Z"/><path class="cls-1" d="M240.28,219.9c0-.21.03-.46.09-.75-.75.57-1.63,1-2.66,1.27-1.02.27-2.26.41-3.71.41-1.82,0-3.17-.25-4.03-.74s-1.3-1.27-1.3-2.32c0-.78.2-1.54.61-2.27.4-.73,1.09-1.32,2.05-1.75.96-.43,2.29-.69,3.98-.78l4.78-.24c.53-.03.92-.14,1.17-.34s.37-.47.37-.8-.2-.57-.59-.74-.98-.25-1.74-.25c-.93,0-1.63.12-2.1.36-.48.24-.8.58-.96,1h-5.51c.5-1.19,1.1-2.05,1.81-2.58.71-.53,1.62-.92,2.75-1.18s2.77-.39,4.91-.39c2.5,0,4.29.27,5.38.82s1.63,1.44,1.63,2.69c0,.46-.05.9-.15,1.34l-1.12,5.38c-.12.59-.18,1.02-.18,1.3,0,.37.07.71.22,1.01h-5.64l-.04-.44ZM235.09,215.94c-.23.28-.34.59-.34.93s.14.6.43.78c.29.18.75.28,1.38.28.84,0,1.57-.1,2.19-.29.62-.19,1.13-.49,1.53-.89.4-.4.66-1.03.79-1.88-.31.09-1.52.23-3.64.42l-1.28.13c-.48.07-.84.25-1.07.53Z"/><path class="cls-1" d="M263.3,209.38c0-.92-.27-1.63-.81-2.11s-1.3-.73-2.27-.73c-1.42,0-2.58.35-3.48,1.06-.91.71-1.54,1.65-1.89,2.82-.35,1.17-.53,2.12-.53,2.84,0,1.09.3,1.9.89,2.44.59.54,1.46.81,2.59.81s2.08-.25,2.84-.74c.76-.49,1.37-1.26,1.85-2.3h7.85c-1,2.68-2.51,4.6-4.53,5.75-2.02,1.15-4.89,1.73-8.61,1.73-2.21,0-3.92-.16-5.15-.48-1.23-.32-2.2-.74-2.93-1.26-.72-.52-1.29-1.2-1.69-2.04s-.61-1.86-.61-3.06c0-.72.11-1.62.32-2.69.21-1.07.56-2.09,1.02-3.05.47-.96,1.01-1.79,1.62-2.48.61-.69,1.28-1.27,2.01-1.74s1.55-.86,2.46-1.16c.91-.3,1.94-.53,3.1-.68,1.16-.15,2.41-.22,3.74-.22,2.3,0,4.17.22,5.58.65,1.42.44,2.52,1.14,3.31,2.12.79.98,1.19,2.3,1.19,3.96,0,.1,0,.36-.02.79h-7.85v-.25Z"/><path class="cls-1" d="M271.92,204.06h5.51l-3.37,16.28h-5.51l3.37-16.28Z"/><path class="cls-1" d="M285.12,219h-.04c-.59.56-1.37,1-2.35,1.33-.98.33-1.98.5-3.01.5-1.5,0-2.62-.31-3.37-.93s-1.12-1.48-1.12-2.58c0-.38.05-.82.15-1.32l1.61-7.71h5.51l-1.32,6.39c-.06.22-.09.46-.09.71,0,.98.58,1.48,1.74,1.48.9,0,1.6-.24,2.12-.73.51-.48.87-1.2,1.06-2.16l1.17-5.68h5.51l-2.49,12.05h-5.33l.26-1.34Z"/><path class="cls-1" d="M294,204.06h5.51l-1.17,5.6h.04c1.18-1.13,2.89-1.7,5.13-1.7,1.78,0,3.17.43,4.18,1.29,1.01.86,1.51,2.04,1.51,3.54s-.36,2.9-1.07,4.12c-.71,1.22-1.71,2.18-3.01,2.88s-2.72,1.05-4.3,1.05c-1.19,0-2.16-.15-2.9-.44-.74-.29-1.3-.73-1.66-1.32h-.04l-.26,1.28h-5.33l3.37-16.28ZM299.37,211.9c-.46.16-.84.41-1.16.74s-.55.75-.71,1.27c-.15.51-.23.96-.23,1.34,0,.6.2,1.06.61,1.39s1.05.48,1.93.48c1.22,0,2.13-.34,2.74-1.02.61-.68.91-1.48.91-2.39,0-.66-.22-1.17-.65-1.52-.43-.35-1.07-.53-1.91-.53-.57,0-1.09.08-1.54.24Z"/><path class="cls-1" d="M179.15,208.4c0-1-.29-1.76-.88-2.29s-1.41-.79-2.46-.79c-1.54,0-2.79.38-3.78,1.15-.98.77-1.66,1.79-2.05,3.05-.38,1.27-.58,2.29-.58,3.08,0,1.18.32,2.06.96,2.65.64.59,1.58.88,2.81.88s2.26-.27,3.08-.8c.82-.54,1.49-1.37,2.01-2.49h8.51c-1.09,2.91-2.73,4.99-4.91,6.24-2.19,1.25-5.3,1.87-9.33,1.87-2.39,0-4.25-.17-5.58-.52-1.33-.35-2.39-.8-3.17-1.37-.79-.56-1.4-1.3-1.83-2.21s-.66-2.02-.66-3.32c0-.79.12-1.76.35-2.92.23-1.16.6-2.26,1.11-3.31.51-1.04,1.09-1.94,1.75-2.69.66-.75,1.39-1.38,2.18-1.89s1.68-.93,2.66-1.26c.98-.33,2.1-.58,3.36-.74,1.26-.16,2.61-.24,4.06-.24,2.5,0,4.52.24,6.05.71s2.73,1.24,3.59,2.3c.86,1.06,1.29,2.49,1.29,4.3,0,.11,0,.39-.03.86h-8.25c-.15,0-.27-.12-.27-.27h0Z"/></svg>